<svg xmlns="http://www.w3.org/2000/svg" viewBox="0 0 128 128" width="128" height="128">
  <!-- Pracu Pracu — Budzik (dzwoni i podskakuje). -->
  <g fill="none" stroke="#e8465a" stroke-width="4" stroke-linecap="round">
    <path d="M10 60 Q6 72 12 84"/>
    <path d="M118 60 Q122 72 116 84"/>
  </g>
  <g stroke="#3b2f4a" stroke-width="4" stroke-linejoin="round" stroke-linecap="round">
    <path d="M36 112 L28 124 M92 112 L100 124" fill="none"/>
    <path d="M20 34 C18 18 34 8 46 16 Z" fill="#e8465a"/>
    <path d="M108 34 C110 18 94 8 82 16 Z" fill="#e8465a"/>
    <path d="M64 12 L64 22" fill="none"/>
    <circle cx="64" cy="10" r="4" fill="#f4c542"/>
    <circle cx="64" cy="70" r="46" fill="#e8465a"/>
    <circle cx="64" cy="70" r="36" fill="#ffffff"/>
  </g>
  <g fill="none" stroke="#3b2f4a" stroke-width="4.5" stroke-linecap="round">
    <path d="M42 50 L54 55"/>
    <path d="M86 50 L74 55"/>
  </g>
  <circle cx="52" cy="63" r="4.5" fill="#3b2f4a"/>
  <circle cx="76" cy="63" r="4.5" fill="#3b2f4a"/>
  <g stroke="#3b2f4a" stroke-width="3.5" stroke-linecap="round">
    <path d="M64 82 L64 94"/>
    <path d="M64 82 L74 88"/>
  </g>
  <circle cx="64" cy="82" r="3.5" fill="#e8465a" stroke="#3b2f4a" stroke-width="2"/>
  <g fill="#e8465a">
    <circle cx="64" cy="40" r="2.5"/>
    <circle cx="94" cy="70" r="2.5"/>
    <circle cx="34" cy="70" r="2.5"/>
    <circle cx="64" cy="100" r="2.5"/>
  </g>
</svg>
