<svg xmlns="http://www.w3.org/2000/svg" viewBox="0 0 128 128" width="128" height="128">
  <!-- Skacząca kózka w locie: nóżki podkulone (przednie do przodu, tylne do tyłu). Te same głowa i tułów co koza.svg. -->
  <g stroke="#3b2f4a" stroke-width="4" stroke-linejoin="round" stroke-linecap="round">
    <path d="M30 70 Q16 58 20 48 Q30 54 34 64 Z" fill="#fffaf2"/>
    <rect x="30" y="84" width="10" height="24" rx="5" fill="#eadcc6" transform="rotate(35 35 86)"/>
    <rect x="74" y="82" width="10" height="24" rx="5" fill="#eadcc6" transform="rotate(-40 79 84)"/>
    <path d="M28 76 C28 60 42 56 58 56 C74 56 86 60 88 74 C90 90 76 98 58 98 C40 98 28 92 28 76 Z" fill="#fffaf2"/>
    <rect x="42" y="86" width="10" height="24" rx="5" fill="#fffaf2" transform="rotate(40 47 88)"/>
    <rect x="80" y="82" width="10" height="24" rx="5" fill="#fffaf2" transform="rotate(-45 85 84)"/>
    <path d="M90 34 C86 24 90 16 96 14 C94 22 96 28 98 32 Z" fill="#c9a47e"/>
    <path d="M100 34 C100 24 106 18 112 18 C108 24 108 30 108 34 Z" fill="#c9a47e"/>
    <path d="M86 44 C72 38 68 44 70 50 C78 54 86 52 88 48 Z" fill="#eadcc6"/>
    <path d="M84 50 C84 36 94 30 104 32 C116 34 120 46 118 56 C116 66 108 72 98 72 C88 72 84 62 84 50 Z" fill="#fffaf2"/>
    <path d="M98 72 Q100 82 94 86 Q92 78 92 72 Z" fill="#fffaf2"/>
  </g>
  <ellipse cx="54" cy="68" rx="12" ry="6" fill="#eadcc6"/>
  <path d="M99 48 Q104 43 109 48" fill="none" stroke="#3b2f4a" stroke-width="3.5" stroke-linecap="round"/>
  <ellipse cx="110" cy="58" rx="5" ry="3.2" fill="#ff9fb2"/>
  <path d="M110 62 Q114 70 119 62 Z" fill="#ff6f91" stroke="#3b2f4a" stroke-width="2.5" stroke-linejoin="round"/>
</svg>
